<?xml version="1.0" encoding="utf-8"?>
<!-- Generator: Adobe Illustrator 18.0.0, SVG Export Plug-In . SVG Version: 6.00 Build 0)  -->
<!DOCTYPE svg PUBLIC "-//W3C//DTD SVG 1.1//EN" "http://www.w3.org/Graphics/SVG/1.1/DTD/svg11.dtd">
<svg version="1.1" id="Camada_1" xmlns="http://www.w3.org/2000/svg" xmlns:xlink="http://www.w3.org/1999/xlink" x="0px" y="0px"
	 viewBox="0 0 1000 1000" enable-background="new 0 0 1000 1000" xml:space="preserve">
<g>
	<g>
		<g>
			<path fill="#5344FF" d="M420.9,577.6l24.7,3.7c-1.2,10-3.2,22.4-5.4,26l-3.9,3.2c-53.2-12.6-100.6-40.7-137-79.2
				c2.7,0.2,5.6,0.3,8.5,0.3c11.3,0,23-1.7,34.7-5.1c24.4,20.8,52.9,36.9,84.1,46.8L420.9,577.6z"/>
			<path fill="#5344FF" d="M743,341.7c0-57.1-19.8-109.6-52.8-151.1c5.9-12.2,9.7-24.9,11.4-37.7c46.3,49.4,74.7,115.9,74.7,188.8
				c0,57.1-17.4,110.2-47.2,154.3c-1.9-3-3.7-5.8-5.3-8.3l0.1-0.5c1.1-5.1-1-9.7-9.9-22.3c-0.8-1.1-1.7-2.3-2.6-3.6
				C731.5,426,743,385.2,743,341.7z"/>
		</g>
		<path fill="#5344FF" d="M670.1,168.3c-22.9-22.5-50.2-40.4-80.4-52.5c3.2-0.3,6.3-0.4,9.3-0.4c17.7,0,33.4,4.5,48,13.6
			C662.3,138.7,670.1,152.1,670.1,168.3z"/>
		<path fill="#5344FF" d="M541.7,162.9c1.6,2.5,2.7,4.5,3.2,6.1c1.3,3.9-0.4,6.2-5.1,11.4c-1.5,1.6-3.3,3-5.6,5.1
			c-0.7-1.5-1.4-2.9-2.1-4.3c-6.3-11.9-15.4-21-26.6-29c-1.5-1-3-2.1-4.5-3.1c-0.1-0.1-0.3-0.2-0.5-0.3c1.1-0.7,2.1-1.4,3.2-2.1l0,0
			c6.2-4,12.1-7.8,18.9-12.3c0.7,1.1,1.5,2.2,2.2,3.3C530.8,146.5,536.6,154.5,541.7,162.9z"/>
		<path fill="#5344FF" d="M722.5,505.3c-7.8-12.7-14.8-23.1-14.8-23.1l6,2.9c0.3-1.4-3-6.8-8.1-14c-15.4-21.7-47.4-60.3-47.4-60.3
			l9,3.5c6.6-29.2-130.4-135.4-130.4-135.4v-2.3c-0.7-1.9-0.3-4.1,1.7-5.6c0.1-0.1,0.2-0.1,0.3-0.2c10.2-7.7,20.6-15.5,29.6-24.5
			c19.4-19.4,24-42.7,14.6-68.4c-3-8.2-7.2-16.1-11.4-25.3c-3.4,4.3-5.9,7.5-8.4,10.8c-20.4,27.8-46.8,45.9-81.4,51.3
			c-17,2.7-33.3,7.8-47.3,19c9.2-15.5,17-31.9,27.1-46.8c24.8-36.7,56.7-64.6,100.3-76.6c2.2-0.6,4.5-1.2,6.7-1.7
			c10.2-2.4,20.3-3.7,30.2-3.7c18.4,0,36.4,4.5,53.6,15.3c21.5,13.4,30.9,34.2,27.2,58.2c-0.4,2.4-0.9,4.8-1.5,7.2
			c-0.5,2-0.7,4-1.3,7.5c2.2-3.8,4.1-7.6,5.7-11.4c5.6-12.7,8.6-25.7,9.3-38.5c2.5-48.5-28.9-93.7-82-108c-12.7-3.4-25-5-37.1-5
			c-29.8,0-58,9.8-84.7,26.7c-4.9,3.1-9.7,6.4-14.3,9.8c-1.7,1.2-3.3,2.5-5,3.8c-3.7,2.9-7.3,5.9-10.8,9c-5.1,4.5-9.9,9.1-14.6,14
			c-4.8,5-9.5,10.2-13.9,15.6c-12.8,15.5-24,32.5-34.2,50.3c-10.6,18.6-19,38.5-28.7,57.6c-2.1,4.2-4.7,8.3-7.7,12.1
			c-0.5,0.6-0.9,1.2-1.4,1.8c0,0-0.1,0.1-0.1,0.1c-1.8,2.2-3.5,4.4-5.2,6.7c-19.2,25.1-34.7,52.5-48.3,80.9
			c-13.6,28.3-26,57.1-38.8,85.8c-1.3,2.9-2.6,5.8-3.9,8.6c-0.6,1.3-1.1,2.6-1.9,3.7c-7.3,10.5-11.9,21.3-14,32.4
			c-2.6,14.3-1.1,29.1,4.3,44.8c3.2,9.4,17.2,20.7,38.7,25.2c5.9,1.2,12.3,1.9,19.3,1.9c7.9,0,16.4-0.9,25.4-3
			c14.9-3.4,31.1-10.1,48.4-21.1c20-12.8,43.9-30.2,72.3-53.7c0,0,1.6,66.9-12.5,85.2c0,0,0.4,0,1.1,0c3.3,0,13.4-0.4,13.9-5.1
			c0-0.3,0.1-0.5,0.1-0.5c0.7,0,2.5,39.2-9.2,48c0,0,2.1,0.3,4.3,0.3c2.5,0,5.1-0.4,5.4-2c0-0.1,0-0.2,0-0.2c0.1,0-0.1,4.9-0.8,11.6
			c-1.1,10.9-3.4,26.3-7.4,32.5c-0.5,0.8-1,1.4-1.6,1.9c0,0,4.1,2.2,8.2,2.2c2,0,4-0.5,5.5-2c0.9-0.8,1.6-2,2.1-3.6
			c-0.1,0.5-0.5,1.9-1,3.7c-1.4,5-3.9,13.5-7,20.2c15.4,2.1,31.1,3.2,47,3.2c93.4,0,178.1-37.2,240.1-97.6
			C738.6,532.1,730.1,517.7,722.5,505.3z M371.3,305.3c-11.1,7.5-22.3,14.9-32.9,22c-0.1-30.9,19-47.4,46.4-57.1
			C388.5,283.3,383.1,297.4,371.3,305.3z"/>
		<path fill="#5344FF" d="M250.8,410.9c-5,7.1-8.8,14.4-11.6,21.9c-10-28.5-15.4-59.2-15.4-91.1c0-136.6,99.7-250.4,230.1-272.4
			c-3.5,3-6.9,6.1-10.3,9.4l-9.1,3c-32.1,10.4-55.2,29.9-68.5,57.5C300.3,182.7,257,257.3,257,341.7c0,15.6,1.5,30.9,4.3,45.7
			c-3.2,7.1-6.4,14.3-9.5,21.4c-0.1,0.3-0.2,0.5-0.4,0.8C251.2,410,250.9,410.7,250.8,410.9z"/>
		<path fill="#5344FF" d="M385.1,127.7c10.4-13.9,24.5-24.8,42.6-32.3c-5.6,6.3-10.9,13-16.2,20.1c-8.8,11.9-17.1,24.8-25.1,38.8
			c-6.9,12.1-12.9,24.7-18.7,37c-1.6,3.3-3.2,6.7-4.8,10C363.5,171.9,370.7,146.9,385.1,127.7z"/>
	</g>
	<g>
		<path fill="#5344FF" d="M226.1,950.6V746h-79.8v0c0-25.6,20.7-46.3,46.3-46.3h169.2l0,0c0,25.6-20.7,46.3-46.3,46.3h-33.9v204.6
			c0,7.8-6.3,14-14,14h-27.4C232.4,964.7,226.1,958.4,226.1,950.6z"/>
		<path fill="#5344FF" d="M465.1,947.1L465.1,947.1c-12.4,13.6-33.1,22.7-59.4,22.7c-44.7,0-65.4-21.9-65.4-53.9
			c0-56.7,37.9-63,90.2-70.2c25.9-3.6,33.1-8.8,33.1-22.3c0-12.8-12.8-20.3-33.1-20.3c-16.9,0-26.6,6-31.6,15.8
			c-4.1,8.1-12.2,13.3-21.2,13.3H347c-0.2,0-0.4-0.2-0.4-0.4c0.9-40.5,23.3-68.7,86.2-68.7c62.2,0,83.8,27.9,83.8,77.4v115.1
			c0,5-4,9-9,9H484C474.1,964.7,465.7,957,465.1,947.1z M464.3,890c0.2-9-8.3-15.6-17.1-13.4c-4.4,1.1-9.7,2.2-16,3.4
			c-29.5,5.6-39.1,14-39.1,30.7c0,14.8,8.8,21.9,25.1,21.9C443.9,932.8,463.9,913.2,464.3,890L464.3,890z"/>
		<path fill="#5344FF" d="M675.4,964.7c-5.8,0-10.5-4.7-10.5-10.5V843c0-29.5-10-38.7-33.5-38.7c-25.9,0-40.3,21.5-40.3,47.9v102.1
			c0,5.8-4.7,10.5-10.5,10.5h-31c-5.8,0-10.5-4.7-10.5-10.5V696.6h0c28.6,0,51.9,23.2,51.9,51.9v45.5c7.6-17.6,31.5-30.7,57.9-30.7
			c40.3,0,68.2,23.5,68.2,62.6v128.4c0,5.8-4.7,10.5-10.5,10.5H675.4z"/>
		<path fill="#5344FF" d="M740,952.3v-184h25.1c13,0,23.5,10.5,23.5,23.5l0,0c17.2-26.3,37.1-28.7,58.3-28.7l0,0
			c3.7,0,6.8,3,6.8,6.8v38.6c0,4-3.4,7.1-7.3,6.7c-2.3-0.2-4.7-0.3-7-0.3c-31.9,0-47.5,16-47.5,47.5v89.8c0,6.8-5.5,12.3-12.3,12.3
			h-27.2C745.5,964.7,740,959.2,740,952.3z"/>
	</g>
</g>
</svg>
