<?xml version="1.0" encoding="utf-8"?>
<!-- Generator: Adobe Illustrator 18.0.0, SVG Export Plug-In . SVG Version: 6.00 Build 0)  -->
<!DOCTYPE svg PUBLIC "-//W3C//DTD SVG 1.1//EN" "http://www.w3.org/Graphics/SVG/1.1/DTD/svg11.dtd">
<svg version="1.1" id="Camada_1" xmlns="http://www.w3.org/2000/svg" xmlns:xlink="http://www.w3.org/1999/xlink" x="0px" y="0px"
	 viewBox="0 0 1000 500" enable-background="new 0 0 1000 500" xml:space="preserve">
<g>
	<g>
		<g>
			<g>
				<path fill="#E6E6E6" d="M140.1,394.5l14.7,2.2c-0.7,6-1.9,13.3-3.2,15.5l-2.3,1.9c-31.7-7.5-59.8-24.2-81.4-47.1
					c1.6,0.1,3.3,0.2,5,0.2c6.7,0,13.7-1,20.7-3c14.5,12.4,31.4,21.9,50,27.8L140.1,394.5z"/>
				<path fill="#E6E6E6" d="M331.6,254.3c0-33.9-11.8-65.2-31.4-89.8c3.5-7.2,5.8-14.8,6.8-22.4c27.5,29.4,44.4,68.9,44.4,112.2
					c0,33.9-10.4,65.5-28.1,91.7c-1.1-1.8-2.2-3.4-3.1-4.9l0.1-0.3c0.6-3.1-0.6-5.8-5.9-13.2c-0.5-0.7-1-1.4-1.5-2.1
					C324.8,304.4,331.6,280.2,331.6,254.3z"/>
			</g>
			<path fill="#E6E6E6" d="M288.2,151.2c-13.6-13.3-29.8-24-47.8-31.2c1.9-0.2,3.7-0.2,5.5-0.2c10.5,0,19.8,2.6,28.6,8.1
				C283.6,133.6,288.3,141.6,288.2,151.2z"/>
			<path fill="#E6E6E6" d="M211.9,148c0.9,1.5,1.6,2.7,1.9,3.6c0.8,2.3-0.2,3.7-3.1,6.8c-0.9,1-2,1.8-3.3,3
				c-0.4-0.9-0.8-1.7-1.2-2.5c-3.8-7.1-9.1-12.5-15.8-17.2c-0.9-0.6-1.8-1.2-2.7-1.8c-0.1-0.1-0.2-0.1-0.3-0.2
				c0.6-0.4,1.3-0.8,1.9-1.2l0,0c3.7-2.4,7.2-4.7,11.3-7.3c0.4,0.7,0.9,1.3,1.3,1.9C205.4,138.3,208.9,143,211.9,148z"/>
			<path fill="#E6E6E6" d="M319.4,351.6c-4.7-7.5-8.8-13.7-8.8-13.7l3.6,1.7c0.2-0.9-1.8-4-4.8-8.3c-9.2-12.9-28.2-35.9-28.2-35.9
				l5.3,2.1C290.4,280.1,209,217,209,217v-1.4c-0.4-1.1-0.2-2.4,1-3.3c0,0,0.1-0.1,0.2-0.1c6.1-4.6,12.3-9.2,17.6-14.6
				c11.5-11.5,14.3-25.4,8.7-40.7c-1.8-4.9-4.3-9.5-6.8-15c-2,2.6-3.5,4.4-5,6.4c-12.1,16.5-27.8,27.3-48.4,30.5
				c-10.1,1.6-19.8,4.6-28.1,11.3c5.5-9.2,10.1-19,16.1-27.8c14.7-21.8,33.7-38.4,59.7-45.5c1.3-0.4,2.7-0.7,4-1
				c6-1.4,12.1-2.2,18-2.2c11,0,21.7,2.7,31.9,9.1c12.8,8,18.4,20.3,16.2,34.6c-0.2,1.4-0.5,2.8-0.9,4.3c-0.3,1.2-0.4,2.4-0.8,4.5
				c1.3-2.2,2.4-4.5,3.4-6.8c3.3-7.6,5.1-15.3,5.5-22.9c1.5-28.9-17.2-55.7-48.7-64.2c-7.5-2-14.9-3-22.1-3
				c-17.7,0-34.5,5.9-50.4,15.9c-2.9,1.8-5.7,3.8-8.5,5.8c-1,0.7-2,1.5-2.9,2.3c-2.2,1.7-4.3,3.5-6.4,5.4c-3,2.7-5.9,5.4-8.7,8.3
				c-2.9,3-5.6,6.1-8.3,9.3c-7.6,9.2-14.3,19.3-20.3,29.9c-6.3,11.1-11.3,22.9-17.1,34.3c-1.3,2.5-2.8,4.9-4.5,7.2
				c-0.3,0.4-0.6,0.7-0.9,1.1c0,0,0,0.1-0.1,0.1c-1.1,1.3-2.1,2.6-3.1,4c-11.4,14.9-20.6,31.2-28.7,48.1c-8.1,16.8-15.5,34-23.1,51
				c-0.8,1.7-1.5,3.4-2.3,5.1c-0.3,0.8-0.7,1.6-1.1,2.2c-4.4,6.3-7.1,12.7-8.3,19.3c-1.6,8.5-0.6,17.3,2.5,26.6
				c1.9,5.6,10.2,12.3,23,15c3.5,0.7,7.3,1.2,11.4,1.2c4.7,0,9.7-0.5,15.1-1.8c8.8-2,18.5-6,28.8-12.6c11.9-7.6,26.1-18,43-31.9
				c0,0,1,39.7-7.4,50.7c0,0,0.2,0,0.6,0c2,0,8-0.2,8.3-3c0-0.2,0-0.3,0.1-0.3c0.4,0,1.5,23.3-5.5,28.5c0,0,1.2,0.2,2.6,0.2
				c1.5,0,3.1-0.2,3.2-1.2c0-0.1,0-0.1,0-0.1c0,0-0.1,2.9-0.5,6.9c-0.7,6.5-2,15.7-4.4,19.3c-0.3,0.5-0.6,0.8-0.9,1.1
				c0,0,2.4,1.3,4.8,1.3c1.2,0,2.4-0.3,3.3-1.2c0.5-0.5,0.9-1.2,1.2-2.1c-0.1,0.3-0.3,1.1-0.6,2.2c-0.8,2.9-2.3,8-4.1,12
				c9.1,1.3,18.5,1.9,28,1.9c55.5,0,105.9-22.1,142.7-58C329,367.5,324,358.9,319.4,351.6z M110.7,232.7
				c-6.6,4.5-13.3,8.9-19.6,13.1c0-18.3,11.3-28.2,27.6-33.9C120.8,219.6,117.6,228,110.7,232.7z"/>
			<path fill="#E6E6E6" d="M39,295.4c-2.9,4.2-5.3,8.6-6.9,13c-5.9-17-9.2-35.2-9.2-54.2c0-81.2,59.3-148.9,136.8-162
				c-2.1,1.8-4.1,3.6-6.1,5.6l-5.4,1.8c-19.1,6.2-32.8,17.8-40.7,34.2c-39,25.9-64.7,70.2-64.7,120.4c0,9.3,0.9,18.3,2.6,27.1
				c-1.9,4.2-3.8,8.5-5.7,12.7c-0.1,0.2-0.1,0.3-0.2,0.5C39.2,294.9,39.1,295.3,39,295.4z"/>
			<path fill="#E6E6E6" d="M118.8,127.1c6.2-8.2,14.5-14.8,25.3-19.2c-3.3,3.8-6.5,7.7-9.6,11.9c-5.2,7-10.2,14.7-14.9,23.1
				c-4.1,7.2-7.7,14.7-11.1,22c-0.9,2-1.9,4-2.8,6C106,153.3,110.3,138.5,118.8,127.1z"/>
		</g>
		<g>
			<path fill="#E6E6E6" d="M463.6,346.1V178.7h-65.3v0c0-20.9,17-37.9,37.9-37.9h138.4v0c0,20.9-17,37.9-37.9,37.9H509v167.4
				c0,6.3-5.1,11.5-11.5,11.5h-22.4C468.8,357.6,463.6,352.4,463.6,346.1z"/>
			<path fill="#E6E6E6" d="M659.2,343.2L659.2,343.2c-10.1,11.1-27.1,18.6-48.6,18.6c-36.6,0-53.5-18-53.5-44.1
				c0-46.4,31-51.6,73.8-57.5c21.2-2.9,27.1-7.2,27.1-18.3c0-10.4-10.4-16.6-27.1-16.6c-13.8,0-21.8,4.9-25.9,12.9
				c-3.4,6.6-10,10.9-17.4,10.9h-25c-0.2,0-0.3-0.1-0.3-0.3c0.8-33.1,19.1-56.2,70.5-56.2c50.9,0,68.6,22.8,68.6,63.3v94.2
				c0,4.1-3.3,7.4-7.4,7.4h-19.3C666.5,357.6,659.7,351.3,659.2,343.2z M658.5,296.5c0.1-7.4-6.8-12.8-14-10.9
				c-3.6,0.9-7.9,1.8-13.1,2.8c-24.2,4.6-32,11.4-32,25.1c0,12.1,7.2,18,20.6,18C641.9,331.4,658.2,315.4,658.5,296.5L658.5,296.5z"
				/>
			<path fill="#E6E6E6" d="M831.3,357.6c-4.7,0-8.6-3.8-8.6-8.6v-91c0-24.2-8.2-31.7-27.4-31.7c-21.2,0-33,17.6-33,39.2V349
				c0,4.7-3.8,8.6-8.6,8.6h-25.3c-4.7,0-8.6-3.8-8.6-8.6V138.2h0c23.4,0,42.4,19,42.4,42.4v37.2c6.2-14.4,25.8-25.1,47.3-25.1
				c33,0,55.8,19.3,55.8,51.2v105c0,4.7-3.8,8.6-8.6,8.6H831.3z"/>
			<path fill="#E6E6E6" d="M884.1,347.5V197h20.6c10.6,0,19.3,8.6,19.3,19.3v0c14-21.5,30.4-23.5,47.7-23.5l0,0
				c3.1,0,5.5,2.5,5.5,5.5v31.6c0,3.2-2.8,5.8-6,5.5c-1.9-0.2-3.8-0.2-5.7-0.2c-26.1,0-38.8,13.1-38.8,38.8v73.5
				c0,5.6-4.5,10.1-10.1,10.1h-22.3C888.6,357.6,884.1,353,884.1,347.5z"/>
		</g>
	</g>
</g>
</svg>
