<?xml version="1.0" encoding="utf-8"?>
<!-- Generator: Adobe Illustrator 18.0.0, SVG Export Plug-In . SVG Version: 6.00 Build 0)  -->
<!DOCTYPE svg PUBLIC "-//W3C//DTD SVG 1.1//EN" "http://www.w3.org/Graphics/SVG/1.1/DTD/svg11.dtd">
<svg version="1.1" id="Camada_1" xmlns="http://www.w3.org/2000/svg" xmlns:xlink="http://www.w3.org/1999/xlink" x="0px" y="0px"
	 viewBox="0 0 1000 1000" enable-background="new 0 0 1000 1000" xml:space="preserve">
<g>
	<g>
		<g>
			<path fill="#555CA9" d="M177.8,629.4l13.1,2c-0.6,5.3-1.7,11.9-2.9,13.8l-2.1,1.7c-28.3-6.7-53.5-21.7-72.9-42.2
				c1.5,0.1,3,0.2,4.5,0.2c6,0,12.2-0.9,18.5-2.7c13,11.1,28.1,19.6,44.8,24.9L177.8,629.4z"/>
			<path fill="#555CA9" d="M349.2,503.9c0-30.4-10.5-58.3-28.1-80.4c3.1-6.5,5.2-13.2,6.1-20.1C351.8,429.7,367,465,367,503.9
				c0,30.4-9.3,58.7-25.1,82.1c-1-1.6-1.9-3.1-2.8-4.4l0.1-0.3c0.6-2.7-0.5-5.2-5.3-11.9c-0.4-0.6-0.9-1.2-1.4-1.9
				C343.1,548.7,349.2,527,349.2,503.9z"/>
		</g>
		<path fill="#555CA9" d="M310.4,411.6c-12.2-12-26.7-21.5-42.8-27.9c1.7-0.1,3.3-0.2,4.9-0.2c9.4,0,17.8,2.4,25.6,7.3
			C306.3,395.8,310.4,402.9,310.4,411.6z"/>
		<path fill="#555CA9" d="M242.1,408.7c0.8,1.4,1.4,2.4,1.7,3.3c0.7,2.1-0.2,3.3-2.7,6.1c-0.8,0.9-1.8,1.6-3,2.7
			c-0.4-0.8-0.7-1.5-1.1-2.3c-3.4-6.3-8.2-11.2-14.2-15.4c-0.8-0.6-1.6-1.1-2.4-1.6c-0.1-0.1-0.2-0.1-0.2-0.2
			c0.6-0.4,1.1-0.7,1.7-1.1l0,0c3.3-2.1,6.4-4.2,10.1-6.5c0.4,0.6,0.8,1.2,1.2,1.7C236.3,400,239.4,404.3,242.1,408.7z"/>
		<path fill="#555CA9" d="M338.3,590.9c-4.2-6.7-7.9-12.3-7.9-12.3l3.2,1.6c0.2-0.8-1.6-3.6-4.3-7.4c-8.2-11.5-25.2-32.1-25.2-32.1
			l4.8,1.9c3.5-15.6-69.4-72.1-69.4-72.1v-1.2c-0.4-1-0.2-2.2,0.9-3c0,0,0.1-0.1,0.1-0.1c5.4-4.1,11-8.2,15.8-13
			c10.3-10.3,12.8-22.7,7.8-36.4c-1.6-4.4-3.8-8.5-6.1-13.5c-1.8,2.3-3.2,4-4.5,5.7c-10.9,14.8-24.9,24.4-43.3,27.3
			c-9,1.4-17.7,4.1-25.2,10.1c4.9-8.2,9.1-17,14.4-24.9c13.2-19.5,30.2-34.4,53.4-40.8c1.2-0.3,2.4-0.6,3.6-0.9
			c5.4-1.3,10.8-2,16.1-2c9.8,0,19.4,2.4,28.5,8.1c11.4,7.2,16.4,18.2,14.5,31c-0.2,1.3-0.5,2.5-0.8,3.8c-0.3,1-0.4,2.1-0.7,4
			c1.1-2,2.2-4,3-6.1c3-6.8,4.6-13.7,4.9-20.5c1.3-25.8-15.4-49.8-43.6-57.5c-6.7-1.8-13.3-2.7-19.7-2.7c-15.9,0-30.9,5.2-45.1,14.2
			c-2.6,1.7-5.1,3.4-7.6,5.2c-0.9,0.7-1.8,1.3-2.6,2c-2,1.5-3.9,3.1-5.7,4.8c-2.7,2.4-5.3,4.9-7.8,7.5c-2.6,2.7-5,5.4-7.4,8.3
			c-6.8,8.3-12.8,17.3-18.2,26.8c-5.6,9.9-10.1,20.5-15.3,30.7c-1.1,2.3-2.5,4.4-4.1,6.4c-0.2,0.3-0.5,0.7-0.8,1c0,0,0,0.1-0.1,0.1
			c-0.9,1.2-1.9,2.3-2.8,3.5c-10.2,13.3-18.5,27.9-25.7,43c-7.2,15.1-13.8,30.4-20.7,45.7c-0.7,1.5-1.4,3.1-2.1,4.6
			c-0.3,0.7-0.6,1.4-1,2c-3.9,5.6-6.3,11.3-7.4,17.2c-1.4,7.6-0.6,15.5,2.3,23.9c1.7,5,9.2,11,20.6,13.4c3.1,0.7,6.6,1,10.2,1
			c4.2,0,8.7-0.5,13.5-1.6c7.9-1.8,16.6-5.4,25.7-11.2c10.6-6.8,23.3-16.1,38.5-28.6c0,0,0.9,35.6-6.6,45.4c0,0,0.2,0,0.6,0
			c1.8,0,7.2-0.2,7.4-2.7c0-0.2,0-0.3,0.1-0.3c0.4,0,1.3,20.9-4.9,25.5c0,0,1.1,0.2,2.3,0.2c1.3,0,2.7-0.2,2.9-1.1
			c0-0.1,0-0.1,0-0.1c0,0-0.1,2.6-0.4,6.2c-0.6,5.8-1.8,14-3.9,17.3c-0.3,0.4-0.5,0.7-0.8,1c0,0,2.2,1.1,4.3,1.1
			c1.1,0,2.1-0.3,2.9-1.1c0.5-0.4,0.8-1.1,1.1-1.9c-0.1,0.3-0.2,1-0.5,2c-0.7,2.6-2.1,7.2-3.7,10.7c8.2,1.1,16.5,1.7,25,1.7
			c49.7,0,94.8-19.8,127.8-52C346.9,605.2,342.4,597.5,338.3,590.9z M151.5,484.5c-5.9,4-11.9,7.9-17.5,11.7
			c0-16.4,10.1-25.2,24.7-30.4C160.6,472.8,157.7,480.3,151.5,484.5z"/>
		<path fill="#555CA9" d="M87.3,540.7c-2.6,3.8-4.7,7.7-6.2,11.7c-5.3-15.2-8.2-31.5-8.2-48.5c0-72.7,53-133.3,122.5-145
			c-1.9,1.6-3.7,3.3-5.5,5l-4.9,1.6c-17.1,5.5-29.4,15.9-36.5,30.6c-34.9,23.2-57.9,62.8-57.9,107.8c0,8.3,0.8,16.4,2.3,24.3
			c-1.7,3.8-3.4,7.6-5.1,11.4c-0.1,0.1-0.1,0.3-0.2,0.4C87.5,540.2,87.4,540.6,87.3,540.7z"/>
		<path fill="#555CA9" d="M158.8,389.9c5.5-7.4,13-13.2,22.7-17.2c-3,3.4-5.8,6.9-8.6,10.7c-4.7,6.3-9.1,13.2-13.4,20.7
			c-3.7,6.4-6.9,13.2-9.9,19.7c-0.8,1.8-1.7,3.5-2.5,5.3C147.3,413.5,151.1,400.2,158.8,389.9z"/>
	</g>
	<g>
		<path fill="#555CA9" d="M467.5,586V436.1H409v0c0-18.7,15.2-33.9,33.9-33.9h123.9v0c0,18.7-15.2,33.9-33.9,33.9h-24.8V586
			c0,5.7-4.6,10.3-10.3,10.3h-20C472.1,596.3,467.5,591.7,467.5,586z"/>
		<path fill="#555CA9" d="M642.5,583.4L642.5,583.4c-9.1,9.9-24.3,16.7-43.5,16.7c-32.7,0-47.9-16.1-47.9-39.4
			c0-41.5,27.8-46.2,66-51.4c19-2.6,24.3-6.4,24.3-16.4c0-9.4-9.4-14.9-24.3-14.9c-12.4,0-19.5,4.4-23.1,11.6
			c-3,5.9-8.9,9.8-15.5,9.8H556c-0.1,0-0.3-0.1-0.3-0.3c0.7-29.7,17.1-50.3,63.1-50.3c45.6,0,61.4,20.5,61.4,56.7v84.3
			c0,3.6-3,6.6-6.6,6.6h-17.3C649.1,596.3,642.9,590.7,642.5,583.4z M641.9,541.6c0.1-6.6-6.1-11.4-12.5-9.8
			c-3.2,0.8-7.1,1.6-11.8,2.5c-21.6,4.1-28.6,10.2-28.6,22.5c0,10.8,6.4,16.1,18.4,16.1C627,572.9,641.6,558.6,641.9,541.6
			L641.9,541.6z"/>
		<path fill="#555CA9" d="M796.5,596.3c-4.2,0-7.7-3.4-7.7-7.7v-81.5c0-21.6-7.3-28.3-24.5-28.3c-19,0-29.5,15.8-29.5,35.1v74.7
			c0,4.2-3.4,7.7-7.7,7.7h-22.7c-4.2,0-7.7-3.4-7.7-7.7V399.9h0c21,0,38,17,38,38v33.3c5.6-12.9,23.1-22.5,42.4-22.5
			c29.5,0,50,17.2,50,45.9v94c0,4.2-3.4,7.7-7.7,7.7H796.5z"/>
		<path fill="#555CA9" d="M843.8,587.3V452.5h18.4c9.5,0,17.2,7.7,17.2,17.2l0,0c12.6-19.3,27.2-21,42.7-21l0,0c2.7,0,5,2.2,5,5V482
			c0,2.9-2.5,5.2-5.4,4.9c-1.7-0.1-3.4-0.2-5.1-0.2c-23.4,0-34.8,11.7-34.8,34.8v65.8c0,5-4,9-9,9h-19.9
			C847.9,596.3,843.8,592.2,843.8,587.3z"/>
	</g>
</g>
</svg>
