<?xml version="1.0" encoding="utf-8"?>
<!-- Generator: Adobe Illustrator 18.0.0, SVG Export Plug-In . SVG Version: 6.00 Build 0)  -->
<!DOCTYPE svg PUBLIC "-//W3C//DTD SVG 1.1//EN" "http://www.w3.org/Graphics/SVG/1.1/DTD/svg11.dtd">
<svg version="1.1" id="Camada_1" xmlns="http://www.w3.org/2000/svg" xmlns:xlink="http://www.w3.org/1999/xlink" x="0px" y="0px"
	 viewBox="0 0 800 300" enable-background="new 0 0 800 300" xml:space="preserve">
<g>
	<g>
		<path fill="#020202" d="M105.9,49.5c6.8-1.4,13.8-2.1,21-2.1s14.2,0.7,21,2.1c-16.2,2.7-20.8,30.4-20.8,30.4
			c-0.2-0.1-0.3-0.1-0.5-0.2C126.1,77.3,121.3,52.2,105.9,49.5z"/>
		<g>
			<path fill="#020202" d="M116.2,120.6c0,0-4.1,6.4-9.3,0C106.9,120.6,110.7,115.7,116.2,120.6z"/>
			<path fill="#020202" d="M135.8,120.6c0,0,3.8-5,9.3,0C145.1,120.6,141,127,135.8,120.6z"/>
			<path fill="#020202" d="M230.2,150.6c0,55.7-44.2,101-99.2,103.2v-1.4c0-0.3-0.3-0.4-0.6-0.4h-6.9c-0.3,0-0.4,0.1-0.4,0.4v1.4
				c-55-2.1-98.4-46.9-99.3-101.6c-0.7-44.1,64.7-97.4,64.7-97.4s23.6-6.2,25.2,31.1l-9,14.3c-9.5-24.2-31-22.5-31-22.5
				c-5.7,14.4,19.5,46.5,19.5,46.5s-17.3,14-31.6,33.6c-0.1,0.2-0.3,0.3-0.4,0.5c-0.3,1-0.3,2.1-0.4,3.2
				c-0.8,12.3,0.4,24.8,3.4,36.7c1.8-4.2,4.2-8.1,7.2-11.5c2.6,7.7,2.1,16.2,4.4,24c1.4,4.9,3.9,9.5,6.4,14c0.2-3.3,1.5-6.6,3.6-9.1
				c2.9,10.7,8.4,20.6,15.9,28.8c0.9-2.7,2.4-5.2,4.4-7.2c4.6,5.8,16.5,14.6,16.5,14.6l4.2-39h0.1l4.1,39c0,0,11.9-8.8,16.5-14.6
				c2,2,3.5,4.4,4.4,7.1c7.4-8.2,12.9-18.2,15.9-28.8c2.1,2.6,3.4,5.8,3.6,9.1c2.5-4.5,5-9.1,6.4-14c2.3-7.8,1.9-16.3,4.4-24
				c3,3.4,5.5,7.3,7.2,11.5c3.1-11.9,4.2-24.4,3.5-36.7c0-0.6-0.1-1.1-0.1-1.7l0,0c-0.4-0.5-0.8-1.1-1.2-1.6l0,0
				c-13.3-18.3-29.3-31.8-31.6-33.8c0.1-0.2,0.2-0.2,0.2-0.2s25.2-32.1,19.5-46.5c0,0-21.1-1.7-30.7,22.5c0,0-3.9-8.2-9.1-14.3
				c1.7-37.4,25-31.3,25-31.3S230.2,107.1,230.2,150.6z"/>
		</g>
	</g>
	<g>
		<path fill="#020202" d="M328.7,228.7V102.3h-48.4V75.2h125.8v27.1h-48.4v126.4H328.7z"/>
		<path fill="#020202" d="M619.2,75.4v63h-68.7v-63h-28.6v146.3L477,75.4h-43.2l-46.9,153.2h29.8l9.7-31.5h57.8l9.9,31.5h56.3v-63
			h68.7v63h29.3V75.4H619.2z M434.7,169.9l20.5-67.4l20.8,67.4H434.7z"/>
		<path fill="#020202" d="M748.5,171.8c6.7-2.9,12-7.2,16-12.9c6.4-9.2,9.6-20.1,9.6-32.9c0-8.6-1.4-16.4-4.2-23.4
			s-7.1-12.8-13-17.4s-13.3-7.7-22.5-9.1c-2-0.4-4.2-0.5-6.8-0.6c-2.5-0.1-4.5-0.1-6-0.1H657v153.2h28.6V177h32.5l25.2,51.5h32.8
			L748.5,171.8z M685.8,102.6h34.6c1.5,0,3.1-0.1,4.9,0.1c1.8,0.1,3.4,0.4,4.9,0.8c3.9,1.1,6.9,2.9,9.1,5.4s3.6,5.3,4.4,8.4
			c0.8,3.1,1.2,6,1.2,8.8s-0.4,5.7-1.2,8.8c-0.8,3.1-2.3,5.9-4.4,8.4c-2.1,2.5-5.2,4.3-9.1,5.4c-1.5,0.4-3.1,0.8-4.9,0.9
			c-1.7,0.1-3.4,0.3-4.9,0.3h-34.6V102.6z"/>
	</g>
</g>
</svg>
